# xmcd
#
# Track frame offsets:
#	150
#	14006
#	27936
#	40374
#	50971
#	66506
#	80178
#	94834
#	108287
#	118957
#	133098
#	147224
#	158883
#	171327
#	185426
#	199457
#	213314
#	226453
#
# Disc length: 3193 seconds
#
# Revision: 1
# Processed by: cddbd v1.4b42PL0 Copyright (c) Steve Scherf et al.
# Submitted via: audiograbber 1.80
#
DISCID=1c0c7712
DTITLE=various artits - Harlem Swing CD 1
DYEAR=1900
DGENRE=
TTITLE0=Count Basie and His Orchestra - ONE O CLOCK JUMP
TTITLE1=Duke Ellington and His Orchestra - HARLEM AIR-SHAFT
TTITLE2=Lionel Hampton and His Orchestra - SLIDE, HAMP, SLIDE
TTITLE3=Earl Hines and His Orchestra - XYZ
TTITLE4=Erskine Hawkins and His Orchestra - TRIPPIN IN
TTITLE5=Red Norvo and His Orchestra - A-TISKET A-TASKET
TTITLE6=Cab Calloway and His Orchestra - MINNIE THE MOOCHER
TTITLE7=Louis Armstrong and His Orchestra - YOU RASCAL, YOU
TTITLE8=Chick Webb and His Orchestra - GO HARLEM
TTITLE9=Fletcher Henderson and His Orchestra - STAMPEDE
TTITLE10=Andy Kirk and His Clouds of Joy - MOTEN SWING
TTITLE11=Chick Webb and His Orchestra - FACTS AND FIGURES
TTITLE12=Fletcher Henderson and His Orchestra - MOTEN STOMP
TTITLE13=Lionel Hampton and His Orchestra - PLAYBOY
TTITLE14=Count Basie and His Orchestra - IT'S SAND MAN
TTITLE15=Earl Hines and His Orchestra - FATHER STEPS IN
TTITLE16=Duke Ellington and His Orchestra - JUMP FOR JOY
TTITLE17=Benny Carter and His Orchestra - JUST YOU, JUST ME
EXTD=
EXTT0=
EXTT1=
EXTT2=
EXTT3=
EXTT4=
EXTT5=
EXTT6=
EXTT7=
EXTT8=
EXTT9=
EXTT10=
EXTT11=
EXTT12=
EXTT13=
EXTT14=
EXTT15=
EXTT16=
EXTT17=
PLAYORDER=
